<mxfile host="Electron" agent="Mozilla/5.0 (X11; Linux x86_64) AppleWebKit/537.36 (KHTML, like Gecko) draw.io/24.7.5 Chrome/126.0.6478.183 Electron/31.3.0 Safari/537.36" version="24.7.5">
  <diagram name="Page-1" id="obwFh324nHyy3P9eNIDS">
    <mxGraphModel dx="1434" dy="1943" grid="1" gridSize="10" guides="1" tooltips="1" connect="1" arrows="1" fold="1" page="1" pageScale="1" pageWidth="850" pageHeight="1100" math="0" shadow="0">
      <root>
        <mxCell id="0" />
        <mxCell id="1" parent="0" />
        <mxCell id="ipXbzdICDnIxiMKAjKhJ-44" value="Model List Forbidden Responses" style="shape=table;startSize=30;container=1;collapsible=0;childLayout=tableLayout;strokeColor=default;fontSize=16;" parent="1" vertex="1">
          <mxGeometry x="150" y="-950" width="620" height="450" as="geometry" />
        </mxCell>
        <mxCell id="ipXbzdICDnIxiMKAjKhJ-45" value="" style="shape=tableRow;horizontal=0;startSize=0;swimlaneHead=0;swimlaneBody=0;strokeColor=inherit;top=0;left=0;bottom=0;right=0;collapsible=0;dropTarget=0;fillColor=none;points=[[0,0.5],[1,0.5]];portConstraint=eastwest;fontSize=16;" parent="ipXbzdICDnIxiMKAjKhJ-44" vertex="1">
          <mxGeometry y="30" width="620" height="30" as="geometry" />
        </mxCell>
        <mxCell id="ipXbzdICDnIxiMKAjKhJ-46" value="API" style="shape=partialRectangle;html=1;whiteSpace=wrap;connectable=0;strokeColor=inherit;overflow=hidden;fillColor=none;top=0;left=0;bottom=0;right=0;pointerEvents=1;fontSize=16;" parent="ipXbzdICDnIxiMKAjKhJ-45" vertex="1">
          <mxGeometry width="95" height="30" as="geometry">
            <mxRectangle width="95" height="30" as="alternateBounds" />
          </mxGeometry>
        </mxCell>
        <mxCell id="ipXbzdICDnIxiMKAjKhJ-48" value="&lt;b&gt;IBM ML&lt;/b&gt;" style="shape=partialRectangle;html=1;whiteSpace=wrap;connectable=0;strokeColor=inherit;overflow=hidden;fillColor=none;top=0;left=0;bottom=0;right=0;pointerEvents=1;fontSize=16;" parent="ipXbzdICDnIxiMKAjKhJ-45" vertex="1">
          <mxGeometry x="95" width="170" height="30" as="geometry">
            <mxRectangle width="170" height="30" as="alternateBounds" />
          </mxGeometry>
        </mxCell>
        <mxCell id="ipXbzdICDnIxiMKAjKhJ-61" value="&lt;b&gt;Azure ML&lt;/b&gt;" style="shape=partialRectangle;html=1;whiteSpace=wrap;connectable=0;strokeColor=inherit;overflow=hidden;fillColor=none;top=0;left=0;bottom=0;right=0;pointerEvents=1;fontSize=16;" parent="ipXbzdICDnIxiMKAjKhJ-45" vertex="1">
          <mxGeometry x="265" width="165" height="30" as="geometry">
            <mxRectangle width="165" height="30" as="alternateBounds" />
          </mxGeometry>
        </mxCell>
        <mxCell id="ipXbzdICDnIxiMKAjKhJ-64" value="&lt;b&gt;G. Vertex AI&lt;/b&gt;" style="shape=partialRectangle;html=1;whiteSpace=wrap;connectable=0;strokeColor=inherit;overflow=hidden;fillColor=none;top=0;left=0;bottom=0;right=0;pointerEvents=1;fontSize=16;" parent="ipXbzdICDnIxiMKAjKhJ-45" vertex="1">
          <mxGeometry x="430" width="190" height="30" as="geometry">
            <mxRectangle width="190" height="30" as="alternateBounds" />
          </mxGeometry>
        </mxCell>
        <mxCell id="ipXbzdICDnIxiMKAjKhJ-49" value="" style="shape=tableRow;horizontal=0;startSize=0;swimlaneHead=0;swimlaneBody=0;strokeColor=inherit;top=0;left=0;bottom=0;right=0;collapsible=0;dropTarget=0;fillColor=none;points=[[0,0.5],[1,0.5]];portConstraint=eastwest;fontSize=16;" parent="ipXbzdICDnIxiMKAjKhJ-44" vertex="1">
          <mxGeometry y="60" width="620" height="43" as="geometry" />
        </mxCell>
        <mxCell id="ipXbzdICDnIxiMKAjKhJ-50" value="Response Status Code" style="shape=partialRectangle;html=1;whiteSpace=wrap;connectable=0;strokeColor=inherit;overflow=hidden;fillColor=none;top=0;left=0;bottom=0;right=0;pointerEvents=1;fontSize=16;" parent="ipXbzdICDnIxiMKAjKhJ-49" vertex="1">
          <mxGeometry width="95" height="43" as="geometry">
            <mxRectangle width="95" height="43" as="alternateBounds" />
          </mxGeometry>
        </mxCell>
        <mxCell id="ipXbzdICDnIxiMKAjKhJ-52" value="404" style="shape=partialRectangle;html=1;whiteSpace=wrap;connectable=0;strokeColor=inherit;overflow=hidden;fillColor=none;top=0;left=0;bottom=0;right=0;pointerEvents=1;fontSize=16;" parent="ipXbzdICDnIxiMKAjKhJ-49" vertex="1">
          <mxGeometry x="95" width="170" height="43" as="geometry">
            <mxRectangle width="170" height="43" as="alternateBounds" />
          </mxGeometry>
        </mxCell>
        <mxCell id="ipXbzdICDnIxiMKAjKhJ-62" value="401" style="shape=partialRectangle;html=1;whiteSpace=wrap;connectable=0;strokeColor=inherit;overflow=hidden;fillColor=none;top=0;left=0;bottom=0;right=0;pointerEvents=1;fontSize=16;" parent="ipXbzdICDnIxiMKAjKhJ-49" vertex="1">
          <mxGeometry x="265" width="165" height="43" as="geometry">
            <mxRectangle width="165" height="43" as="alternateBounds" />
          </mxGeometry>
        </mxCell>
        <mxCell id="ipXbzdICDnIxiMKAjKhJ-65" value="403" style="shape=partialRectangle;html=1;whiteSpace=wrap;connectable=0;strokeColor=inherit;overflow=hidden;fillColor=none;top=0;left=0;bottom=0;right=0;pointerEvents=1;fontSize=16;" parent="ipXbzdICDnIxiMKAjKhJ-49" vertex="1">
          <mxGeometry x="430" width="190" height="43" as="geometry">
            <mxRectangle width="190" height="43" as="alternateBounds" />
          </mxGeometry>
        </mxCell>
        <mxCell id="ipXbzdICDnIxiMKAjKhJ-53" value="" style="shape=tableRow;horizontal=0;startSize=0;swimlaneHead=0;swimlaneBody=0;strokeColor=inherit;top=0;left=0;bottom=0;right=0;collapsible=0;dropTarget=0;fillColor=none;points=[[0,0.5],[1,0.5]];portConstraint=eastwest;fontSize=16;" parent="ipXbzdICDnIxiMKAjKhJ-44" vertex="1">
          <mxGeometry y="103" width="620" height="347" as="geometry" />
        </mxCell>
        <mxCell id="ipXbzdICDnIxiMKAjKhJ-54" value="Response Body" style="shape=partialRectangle;html=1;whiteSpace=wrap;connectable=0;strokeColor=inherit;overflow=hidden;fillColor=none;top=0;left=0;bottom=0;right=0;pointerEvents=1;fontSize=16;" parent="ipXbzdICDnIxiMKAjKhJ-53" vertex="1">
          <mxGeometry width="95" height="347" as="geometry">
            <mxRectangle width="95" height="347" as="alternateBounds" />
          </mxGeometry>
        </mxCell>
        <mxCell id="ipXbzdICDnIxiMKAjKhJ-56" value="&lt;div style=&quot;text-align: justify; font-size: 10px;&quot;&gt;&lt;font style=&quot;font-size: 10px;&quot;&gt;{&lt;/font&gt;&lt;/div&gt;&lt;div style=&quot;text-align: justify; font-size: 10px;&quot;&gt;&lt;font style=&quot;font-size: 10px;&quot;&gt;&amp;nbsp; &amp;nbsp; &quot;trace&quot;: &quot;bhowp29mqy74&quot;,&lt;/font&gt;&lt;/div&gt;&lt;div style=&quot;text-align: justify; font-size: 10px;&quot;&gt;&lt;font style=&quot;font-size: 10px;&quot;&gt;&amp;nbsp; &amp;nbsp; &quot;errors&quot;: [&lt;/font&gt;&lt;/div&gt;&lt;div style=&quot;text-align: justify; font-size: 10px;&quot;&gt;&lt;font style=&quot;font-size: 10px;&quot;&gt;&amp;nbsp; &amp;nbsp; &amp;nbsp; &amp;nbsp; {&lt;/font&gt;&lt;/div&gt;&lt;div style=&quot;text-align: justify; font-size: 10px;&quot;&gt;&lt;font style=&quot;font-size: 10px;&quot;&gt;&amp;nbsp; &amp;nbsp; &amp;nbsp; &amp;nbsp; &amp;nbsp; &amp;nbsp; &quot;code&quot;: &quot;project_not_found&quot;,&lt;/font&gt;&lt;/div&gt;&lt;div style=&quot;text-align: justify; font-size: 10px;&quot;&gt;&lt;font style=&quot;font-size: 10px;&quot;&gt;&lt;br&gt;&lt;/font&gt;&lt;/div&gt;&lt;div style=&quot;text-align: justify; font-size: 10px;&quot;&gt;&lt;font style=&quot;font-size: 10px;&quot;&gt;&amp;nbsp; &amp;nbsp; &amp;nbsp; &amp;nbsp; &amp;nbsp; &amp;nbsp; &quot;message&quot;: &quot;Failed to find project 98a35d75-c ...&quot;&lt;/font&gt;&lt;/div&gt;&lt;div style=&quot;text-align: justify; font-size: 10px;&quot;&gt;&lt;font style=&quot;font-size: 10px;&quot;&gt;&lt;br&gt;&lt;/font&gt;&lt;/div&gt;&lt;div style=&quot;text-align: justify; font-size: 10px;&quot;&gt;&lt;font style=&quot;font-size: 10px;&quot;&gt;&amp;nbsp; &amp;nbsp; &amp;nbsp; &amp;nbsp; }&lt;/font&gt;&lt;/div&gt;&lt;div style=&quot;text-align: justify; font-size: 10px;&quot;&gt;&lt;font style=&quot;font-size: 10px;&quot;&gt;&amp;nbsp; &amp;nbsp; ]&lt;/font&gt;&lt;/div&gt;&lt;div style=&quot;text-align: justify; font-size: 10px;&quot;&gt;&lt;font style=&quot;font-size: 10px;&quot;&gt;}&lt;/font&gt;&lt;/div&gt;" style="shape=partialRectangle;html=1;whiteSpace=wrap;connectable=0;strokeColor=inherit;overflow=hidden;fillColor=none;top=0;left=0;bottom=0;right=0;pointerEvents=1;fontSize=16;" parent="ipXbzdICDnIxiMKAjKhJ-53" vertex="1">
          <mxGeometry x="95" width="170" height="347" as="geometry">
            <mxRectangle width="170" height="347" as="alternateBounds" />
          </mxGeometry>
        </mxCell>
        <mxCell id="ipXbzdICDnIxiMKAjKhJ-63" value="&lt;div style=&quot;text-align: justify; font-size: 10px;&quot;&gt;&lt;font style=&quot;font-size: 10px;&quot;&gt;{&lt;/font&gt;&lt;/div&gt;&lt;div style=&quot;text-align: justify; font-size: 10px;&quot;&gt;&lt;font style=&quot;font-size: 10px;&quot;&gt;&amp;nbsp; &amp;nbsp; &quot;error&quot;: {&lt;/font&gt;&lt;/div&gt;&lt;div style=&quot;text-align: justify; font-size: 10px;&quot;&gt;&lt;font style=&quot;font-size: 10px;&quot;&gt;&amp;nbsp; &amp;nbsp; &amp;nbsp; &amp;nbsp; &quot;code&quot;: &quot;InvalidAuthenticationTokenTenant&quot;,&lt;/font&gt;&lt;/div&gt;&lt;div style=&quot;text-align: justify; font-size: 10px;&quot;&gt;&lt;font style=&quot;font-size: 10px;&quot;&gt;&amp;nbsp;&lt;/font&gt;&lt;/div&gt;&lt;div style=&quot;text-align: justify; font-size: 10px;&quot;&gt;&lt;font style=&quot;font-size: 10px;&quot;&gt;&amp;nbsp;&amp;nbsp; &amp;nbsp; &amp;nbsp; &quot;message&quot;: &quot;The access token is from the wrong issuer ...&quot;&lt;/font&gt;&lt;/div&gt;&lt;div style=&quot;text-align: justify; font-size: 10px;&quot;&gt;&lt;font style=&quot;font-size: 10px;&quot;&gt;&lt;br&gt;&lt;/font&gt;&lt;/div&gt;&lt;div style=&quot;text-align: justify; font-size: 10px;&quot;&gt;&lt;font style=&quot;font-size: 10px;&quot;&gt;&amp;nbsp; &amp;nbsp; }&lt;/font&gt;&lt;/div&gt;&lt;div style=&quot;text-align: justify; font-size: 10px;&quot;&gt;&lt;font style=&quot;font-size: 10px;&quot;&gt;}&lt;/font&gt;&lt;/div&gt;" style="shape=partialRectangle;html=1;whiteSpace=wrap;connectable=0;strokeColor=inherit;overflow=hidden;fillColor=none;top=0;left=0;bottom=0;right=0;pointerEvents=1;fontSize=16;" parent="ipXbzdICDnIxiMKAjKhJ-53" vertex="1">
          <mxGeometry x="265" width="165" height="347" as="geometry">
            <mxRectangle width="165" height="347" as="alternateBounds" />
          </mxGeometry>
        </mxCell>
        <mxCell id="ipXbzdICDnIxiMKAjKhJ-66" value="&lt;div style=&quot;text-align: justify; font-size: 10px;&quot;&gt;&lt;font style=&quot;font-size: 10px;&quot;&gt;{&lt;/font&gt;&lt;/div&gt;&lt;div style=&quot;text-align: justify; font-size: 10px;&quot;&gt;&lt;font style=&quot;font-size: 10px;&quot;&gt;&amp;nbsp; &amp;nbsp; &quot;error&quot;: {&lt;/font&gt;&lt;/div&gt;&lt;div style=&quot;text-align: justify; font-size: 10px;&quot;&gt;&lt;font style=&quot;font-size: 10px;&quot;&gt;&amp;nbsp; &amp;nbsp; &amp;nbsp; &amp;nbsp; &quot;code&quot;: 403,&lt;/font&gt;&lt;/div&gt;&lt;div style=&quot;text-align: justify; font-size: 10px;&quot;&gt;&lt;font style=&quot;font-size: 10px;&quot;&gt;&amp;nbsp; &amp;nbsp; &amp;nbsp; &amp;nbsp; &quot;message&quot;: &quot;Permission &#39;aiplatform.models.list&#39; denied on resource &#39;//aiplatform. ...&quot;,&lt;/font&gt;&lt;/div&gt;&lt;div style=&quot;text-align: justify; font-size: 10px;&quot;&gt;&lt;font style=&quot;font-size: 10px;&quot;&gt;&lt;br&gt;&lt;/font&gt;&lt;/div&gt;&lt;div style=&quot;text-align: justify; font-size: 10px;&quot;&gt;&lt;font style=&quot;font-size: 10px;&quot;&gt;&amp;nbsp; &amp;nbsp; &amp;nbsp; &amp;nbsp; &quot;status&quot;: &quot;PERMISSION_DENIED&quot;,&lt;/font&gt;&lt;/div&gt;&lt;div style=&quot;text-align: justify; font-size: 10px;&quot;&gt;&lt;font style=&quot;font-size: 10px;&quot;&gt;&amp;nbsp; &amp;nbsp; &amp;nbsp; &amp;nbsp; &quot;details&quot;: [&lt;/font&gt;&lt;/div&gt;&lt;div style=&quot;text-align: justify; font-size: 10px;&quot;&gt;&lt;font style=&quot;font-size: 10px;&quot;&gt;&amp;nbsp; &amp;nbsp; &amp;nbsp; &amp;nbsp; &amp;nbsp; &amp;nbsp; {&lt;/font&gt;&lt;/div&gt;&lt;div style=&quot;text-align: justify; font-size: 10px;&quot;&gt;&lt;font style=&quot;font-size: 10px;&quot;&gt;&amp;nbsp; &amp;nbsp; &amp;nbsp; &amp;nbsp; &amp;nbsp; &amp;nbsp; &amp;nbsp; &amp;nbsp; &quot;@type&quot;: &quot;type.googleapis ...&quot;,&lt;/font&gt;&lt;/div&gt;&lt;div style=&quot;text-align: justify; font-size: 10px;&quot;&gt;&lt;font style=&quot;font-size: 10px;&quot;&gt;&lt;br&gt;&lt;/font&gt;&lt;/div&gt;&lt;div style=&quot;text-align: justify; font-size: 10px;&quot;&gt;&lt;font style=&quot;font-size: 10px;&quot;&gt;&amp;nbsp; &amp;nbsp; &amp;nbsp; &amp;nbsp; &amp;nbsp; &amp;nbsp; &amp;nbsp; &amp;nbsp; &quot;reason&quot;: &quot;IAM_PERMISSION_DENIED&quot;,&lt;/font&gt;&lt;/div&gt;&lt;div style=&quot;text-align: justify; font-size: 10px;&quot;&gt;&lt;font style=&quot;font-size: 10px;&quot;&gt;&lt;br&gt;&lt;/font&gt;&lt;/div&gt;&lt;div style=&quot;text-align: justify; font-size: 10px;&quot;&gt;&lt;font style=&quot;font-size: 10px;&quot;&gt;&amp;nbsp; &amp;nbsp; &amp;nbsp; &amp;nbsp; &amp;nbsp; &amp;nbsp; &amp;nbsp; &amp;nbsp; &quot;domain&quot;: &quot;aiplatform.googleapis.com&quot;,&lt;/font&gt;&lt;/div&gt;&lt;div style=&quot;text-align: justify; font-size: 10px;&quot;&gt;&lt;font style=&quot;font-size: 10px;&quot;&gt;&lt;br&gt;&lt;/font&gt;&lt;/div&gt;&lt;div style=&quot;text-align: justify; font-size: 10px;&quot;&gt;&lt;font style=&quot;font-size: 10px;&quot;&gt;&amp;nbsp; &amp;nbsp; &amp;nbsp; &amp;nbsp; &amp;nbsp; &amp;nbsp; &amp;nbsp; &amp;nbsp; &quot;metadata&quot;: {&lt;/font&gt;&lt;/div&gt;&lt;div style=&quot;text-align: justify; font-size: 10px;&quot;&gt;&lt;font style=&quot;font-size: 10px;&quot;&gt;&amp;nbsp; &amp;nbsp; &amp;nbsp; &amp;nbsp; &amp;nbsp; &amp;nbsp; &amp;nbsp; &amp;nbsp; &amp;nbsp; &amp;nbsp; &quot;permission&quot;: &quot;aiplatform.models.list&quot;,&lt;/font&gt;&lt;/div&gt;&lt;div style=&quot;text-align: justify; font-size: 10px;&quot;&gt;&lt;font style=&quot;font-size: 10px;&quot;&gt;&lt;br&gt;&lt;/font&gt;&lt;/div&gt;&lt;div style=&quot;text-align: justify; font-size: 10px;&quot;&gt;&lt;font style=&quot;font-size: 10px;&quot;&gt;&amp;nbsp; &amp;nbsp; &amp;nbsp; &amp;nbsp; &amp;nbsp; &amp;nbsp; &amp;nbsp; &amp;nbsp; &amp;nbsp; &amp;nbsp; &quot;resource&quot;: &quot;projects/ ...&quot;&lt;/font&gt;&lt;/div&gt;&lt;div style=&quot;text-align: justify; font-size: 10px;&quot;&gt;&lt;font style=&quot;font-size: 10px;&quot;&gt;&amp;nbsp; &amp;nbsp; &amp;nbsp; &amp;nbsp; &amp;nbsp; &amp;nbsp; &amp;nbsp; &amp;nbsp; }&lt;/font&gt;&lt;/div&gt;&lt;div style=&quot;text-align: justify; font-size: 10px;&quot;&gt;&lt;font style=&quot;font-size: 10px;&quot;&gt;&amp;nbsp; &amp;nbsp; &amp;nbsp; &amp;nbsp; &amp;nbsp; &amp;nbsp; }&lt;/font&gt;&lt;/div&gt;&lt;div style=&quot;text-align: justify; font-size: 10px;&quot;&gt;&lt;font style=&quot;font-size: 10px;&quot;&gt;&amp;nbsp; &amp;nbsp; &amp;nbsp; &amp;nbsp; ]&lt;/font&gt;&lt;/div&gt;&lt;div style=&quot;text-align: justify; font-size: 10px;&quot;&gt;&lt;font style=&quot;font-size: 10px;&quot;&gt;&amp;nbsp; &amp;nbsp; }&lt;/font&gt;&lt;/div&gt;&lt;div style=&quot;text-align: justify; font-size: 10px;&quot;&gt;&lt;font style=&quot;font-size: 10px;&quot;&gt;}&lt;/font&gt;&lt;/div&gt;" style="shape=partialRectangle;html=1;whiteSpace=wrap;connectable=0;strokeColor=inherit;overflow=hidden;fillColor=none;top=0;left=0;bottom=0;right=0;pointerEvents=1;fontSize=16;" parent="ipXbzdICDnIxiMKAjKhJ-53" vertex="1">
          <mxGeometry x="430" width="190" height="347" as="geometry">
            <mxRectangle width="190" height="347" as="alternateBounds" />
          </mxGeometry>
        </mxCell>
      </root>
    </mxGraphModel>
  </diagram>
</mxfile>
